# xmcd
#
# Track frame offsets:
#	150
#	10401
#	26383
#	38282
#	49143
#	62499
#	78017
#	91419
#	101198
#	115102
#	127108
#	141524
#	157996
#	171404
#	184012
#	197363
#	211193
#	226647
#	244438
#	259546
#	273917
#	290610
#	304511
#	317317
#
# Disc length: 4440 seconds
#
# Revision: 1
# Processed by: cddbd v1.5.2PL0 Copyright (c) Steve Scherf et al.
# Submitted via: audiograbber 1.83.01
#
DISCID=39115618
DTITLE=The Greatest Country Music Recordings Of All Time - Record 27 and 28
DYEAR=1900
DGENRE=
TTITLE0=Crystal Gayle - Wrong Road Again
TTITLE1=Crystal Gayle - I'll Get Over You
TTITLE2=Crystal Gayle - Don't It Make My Brown Eyes Blue
TTITLE3=Crystal Gayle - Ready For The Times To Get Better
TTITLE4=Crystal Gayle - Why Have You Left The One You Left Me For
TTITLE5=Crystal Gayle - When I Dream
TTITLE6=Glen Campbell - Gentle On My Mind
TTITLE7=Anne Murray - Snowbird
TTITLE8=Anne Murray - Danny's Song
TTITLE9=Glen Campbell - Galveston
TTITLE10=Glen Campbell - Rhinestone Cowboy
TTITLE11=Anne Murray - You Needed Me
TTITLE12=Kenny Rogers and the First Edition - Ruby, Don't Take Your Love To Tow
TTITLE12=n
TTITLE13=Bobby Borchers - Cheap Perfume And Candlelight
TTITLE14=Kenny Rogers and the First Edition - A Sranger In My Place
TTITLE15=Tanya Tucker - Lizzie And The Rainman
TTITLE16=Leon Everette - Hurricane
TTITLE17=Charly McClain - Surround Me With Love
TTITLE18=Jessi Colter - I'm Not Lisa
TTITLE19=Johnny Duncan and Janie Fricke - Stranger
TTITLE20=T.G. Sheppard - Last Cheater's Waltz
TTITLE21=Sylvia - Heart On The Mend
TTITLE22=Janie Fricke - I'll Need Someone To Hold ME (When I Cry)
TTITLE23=Sylvia - The Matador
EXTD=
EXTT0=
EXTT1=
EXTT2=
EXTT3=
EXTT4=
EXTT5=
EXTT6=
EXTT7=
EXTT8=
EXTT9=
EXTT10=
EXTT11=
EXTT12=
EXTT13=
EXTT14=
EXTT15=
EXTT16=
EXTT17=
EXTT18=
EXTT19=
EXTT20=
EXTT21=
EXTT22=
EXTT23=
PLAYORDER=
